{"title":"Non Essere Cattivo aka Don't Be Bad (2015) - DVDRip x265 HEVC -","uid":13706850,"size":1228930867,"categoryP":"video","categoryS":"movies","magnet":"?xt=urn:btih:9c842d6301e8099f40b268870f5185a1d67db6db&amp;dn=Non+Essere+Cattivo+aka+Don%27t+Be+Bad+%282015%29+-+DVDRip+x265+HEVC+-+&amp;tr=udp%3A%2F%2Ftracker.leechers-paradise.org%3A6969&amp;tr=udp%3A%2F%2Fzer0day.ch%3A1337&amp;tr=udp%3A%2F%2Fopen.demonii.com%3A1337&amp;tr=udp%3A%2F%2Ftracker.coppersurfer.tk%3A6969&amp;tr=udp%3A%2F%2Fexodus.desync.com%3A6969","seeders":5,"leechers":2,"uploader":"BRSHNKV","files":1,"time":1456835262,"description":"A story set in the 90s and in the outskirts of Rome to Ostia, the same places of the films of Pasolini. His characters, in the '90s, seem to belong to a world that revolves around hedonism. A world where money, luxury cars, night clubs, cocaine and synthetic drugs are easy to run. A world in which Vittorio and Cesare, in their early twenty, act in search of their success. Initiation for their existence has a very high cost and Vittorio, to save himself, abandons Cesare, who instead will inexorably sink. The bond that unites them is so strong that Vittorio really never shall abandon his friend, always hoping to be able to look to the future with new eyes.\r\n\r\n\r\nTechnical:\r\n\r\nFormat : MPEG-4\r\nFormat profile : Base Media / Version 2\r\nCodec ID : mp42\r\nFile size : 1.14 GiB\r\nDuration : 1h 38mn\r\nOverall bit rate mode : Variable\r\nOverall bit rate : 1 668 Kbps\r\nEncoded date : UTC 2016-02-28 21:21:35\r\nTagged date : UTC 2016-02-28 21:21:35\r\nWriting application : HandBrake 0.10.2 2015061100\r\n\r\nVideo\r\nID : 1\r\nFormat : HEVC\r\nFormat/Info : High Efficiency Video Coding\r\nFormat profile :   @Main\r\nCodec ID : hev1\r\nCodec ID/Info : High Efficiency Video Coding\r\nDuration : 1h 38mn\r\nBit rate : 1 500 Kbps\r\nWidth : 720 pixels\r\nHeight : 428 pixels\r\nDisplay aspect ratio : 2.40:1\r\nOriginal display aspect ratio : 2.40:1\r\nFrame rate mode : Constant\r\nFrame rate : 25.000 fps\r\nColor space : YUV\r\nChroma subsampling : 4:2:0\r\nBit depth : 8 bits\r\nBits/(Pixel*Frame) : 0.195\r\nStream size : 1.03 GiB (90%)\r\nWriting library : x265 1.5:[Mac OS X][clang 6.1.0][64 bit]\r\nEncoded date : UTC 2016-02-28 21:21:35\r\nTagged date : UTC 2016-02-28 21:21:35\r\nColor range : Limited\r\nColor primaries : BT.601 PAL\r\nTransfer characteristics : BT.709\r\nMatrix coefficients : BT.601\r\n\r\nAudio\r\nID : 2\r\nFormat : AAC\r\nFormat/Info : Advanced Audio Codec\r\nFormat profile : LC\r\nCodec ID : 40\r\nDuration : 1h 38mn\r\nBit rate mode : Variable\r\nBit rate : 162 Kbps\r\nChannel(s) : 2 channels\r\nChannel positions : Front: L R\r\nSampling rate : 48.0 KHz\r\nCompression mode : Lossy\r\nStream size : 114 MiB (10%)\r\nTitle : Stereo / Stereo\r\nEncoded date : UTC 2016-02-28 21:21:35\r\nTagged date : UTC 2016-02-28 21:21:35\r\n\r\nText\r\nID : 3\r\nFormat : Timed Text\r\nMuxing mode : sbtl\r\nCodec ID : tx3g\r\nDuration : 1h 34mn\r\nBit rate mode : Variable\r\nBit rate : 44 bps\r\nStream size : 30.7 KiB (0%)\r\nLanguage : English\r\nEncoded date : UTC 2016-02-28 21:21:35\r\nTagged date : UTC 2016-02-28 21:21:35","torrent":{"xt":"urn:btih:9c842d6301e8099f40b268870f5185a1d67db6db","amp;dn":"Non+Essere+Cattivo+aka+Don%27t+Be+Bad+%282015%29+-+DVDRip+x265+HEVC+-+","amp;tr":["udp%3A%2F%2Ftracker.leechers-paradise.org%3A6969","udp%3A%2F%2Fzer0day.ch%3A1337","udp%3A%2F%2Fopen.demonii.com%3A1337","udp%3A%2F%2Ftracker.coppersurfer.tk%3A6969","udp%3A%2F%2Fexodus.desync.com%3A6969"],"infoHash":"9c842d6301e8099f40b268870f5185a1d67db6db","infoHashBuffer":{"type":"Buffer","data":[156,132,45,99,1,232,9,159,64,178,104,135,15,81,133,161,214,125,182,219]},"announce":[],"urlList":[]}}